<svg width="32" height="32" viewBox="0 0 405 405" fill="none" xmlns="http://www.w3.org/2000/svg">
  <rect width="405" height="405" rx="80" fill="#081F28"/>
  <!-- Omaze ripple mark — Banana Dream Pie on Night Sky -->
  <path opacity="0.6" d="M202.462 367.556C177.532 367.556 153.63 361.902 132.555 351.879C130.242 350.851 127.929 350.851 125.616 351.879C117.135 356.505 109.167 361.644 101.971 367.556C98.1161 370.64 98.63 376.294 102.742 378.864C132.298 395.57 166.224 405.08 202.462 405.08C238.7 405.08 272.626 395.57 302.181 378.864C306.294 376.552 306.808 370.64 302.952 367.556C295.5 361.644 287.533 356.505 279.308 351.879C277.253 350.851 274.681 350.851 272.368 351.879C251.293 361.902 227.392 367.556 202.462 367.556Z" fill="#FFDD00"/>
  <path opacity="0.8" d="M351.269 312.285C309.376 278.36 256.432 259.598 202.46 259.598C150.801 259.598 101.712 276.047 60.5907 307.145C60.5907 307.145 51.8523 314.085 45.1701 319.995C42.6 322.308 42.0859 326.163 44.3991 328.991C49.5393 335.159 55.4504 341.841 61.1047 347.495C63.4177 349.808 67.273 350.066 69.8431 348.009C75.7542 343.127 83.4646 337.473 83.4646 337.473C118.161 311.514 159.282 297.636 202.718 297.636C248.208 297.636 292.413 313.314 327.625 341.841C327.625 341.841 331.479 344.925 335.334 348.009C337.905 350.066 341.76 350.066 344.073 347.753C349.727 342.099 355.638 335.673 360.778 329.248C363.091 326.421 362.577 322.566 360.007 320.253C355.638 316.14 351.269 312.285 351.269 312.285Z" fill="#FFDD00"/>
  <path d="M169.321 2.62659C84.2515 16.2482 16.6579 83.5847 2.77927 168.656C-3.90298 209.52 1.75124 248.585 16.6579 282.768C18.7139 287.393 24.3681 288.678 27.9662 285.594C35.4196 279.426 43.1298 273.515 51.0971 268.118V267.86C96.0739 237.791 147.99 222.113 202.476 222.113C256.961 222.113 309.135 238.047 353.854 267.86V268.118C361.823 273.515 369.79 279.426 376.986 285.594C380.584 288.678 386.495 287.393 388.293 283.025C399.088 258.351 405 231.108 405 202.58C405 79.9866 295.77 -17.4201 169.321 2.62659ZM202.476 184.59C144.391 184.59 88.6205 200.267 40.0457 230.337C38.5037 221.342 37.7326 211.833 37.7326 202.324C37.7326 111.342 111.751 37.3229 202.733 37.3229C293.714 37.3229 367.733 111.342 367.733 202.324C367.733 211.833 366.962 221.085 365.42 230.337C316.331 200.524 260.56 184.59 202.476 184.59Z" fill="#FFDD00"/>
</svg>
